<svg xmlns="http://www.w3.org/2000/svg" xmlns:xlink="http://www.w3.org/1999/xlink" width="500" zoomAndPan="magnify" viewBox="0 0 375 374.999991" height="500" preserveAspectRatio="xMidYMid meet" version="1.0"><defs><clipPath id="85e8da6142"><path d="M 169.445312 173.351562 L 205.445312 173.351562 L 205.445312 201.851562 L 169.445312 201.851562 Z M 169.445312 173.351562 " clip-rule="nonzero"/></clipPath></defs><g clip-path="url(#85e8da6142)"><path fill="#d9d9d9" d="M 205.015625 182.167969 L 187.800781 173.46875 C 187.574219 173.359375 187.316406 173.359375 187.101562 173.46875 L 169.878906 182.167969 C 169.613281 182.300781 169.445312 182.578125 169.445312 182.875 C 169.445312 183.171875 169.613281 183.449219 169.878906 183.582031 L 174.140625 185.734375 L 174.140625 195.015625 C 174.140625 195.285156 174.277344 195.539062 174.507812 195.6875 L 181.578125 200.152344 C 183.355469 201.28125 185.402344 201.839844 187.445312 201.839844 C 189.492188 201.839844 191.527344 201.28125 193.3125 200.152344 L 200.382812 195.6875 C 200.613281 195.539062 200.75 195.285156 200.75 195.015625 L 200.75 185.742188 L 205.015625 183.589844 C 205.28125 183.457031 205.445312 183.179688 205.445312 182.882812 C 205.445312 182.585938 205.28125 182.308594 205.015625 182.167969 Z M 199.183594 194.582031 L 192.484375 198.816406 C 189.425781 200.75 185.472656 200.75 182.414062 198.816406 L 175.710938 194.582031 L 175.710938 186.527344 L 187.101562 192.28125 C 187.207031 192.339844 187.332031 192.363281 187.453125 192.363281 C 187.574219 192.363281 187.691406 192.332031 187.804688 192.28125 L 196.066406 188.105469 L 196.066406 193.941406 C 196.066406 194.375 196.417969 194.734375 196.847656 194.734375 C 197.28125 194.734375 197.632812 194.375 197.632812 193.941406 L 197.632812 187.3125 L 199.195312 186.519531 L 199.195312 194.582031 Z M 196.871094 185.929688 L 189.410156 181.414062 C 189.039062 181.1875 188.5625 181.3125 188.339844 181.683594 C 188.117188 182.054688 188.238281 182.539062 188.605469 182.765625 L 195.207031 186.765625 L 187.445312 190.6875 L 171.980469 182.875 L 187.445312 175.0625 L 202.910156 182.875 Z M 196.871094 185.929688 " fill-opacity="1" fill-rule="nonzero"/></g></svg>