<svg width="42" height="43" viewBox="0 0 42 43" fill="none" xmlns="http://www.w3.org/2000/svg">
<g filter="url(#filter0_d_1_312)">
<path opacity="0.4" d="M20.6141 31.8595C19.5493 31.8595 18.486 31.4366 17.6732 30.5923L16.6624 29.5351C16.2706 29.1266 15.7458 28.9007 15.1892 28.8993H13.7672C11.4687 28.8993 9.59811 26.9426 9.59811 24.5385V23.0497C9.59673 22.4689 9.38073 21.92 8.98888 21.5073L7.99473 20.4688C6.36642 18.7758 6.3595 16.0082 7.9795 14.3035L8.99027 13.2448C9.38073 12.835 9.59673 12.2861 9.59811 11.7039V10.218C9.59811 7.81237 11.4687 5.85575 13.7672 5.85575H15.1906C15.7458 5.85575 16.2692 5.62981 16.6638 5.21706L17.6593 4.17864C19.278 2.47547 21.9226 2.46678 23.5537 4.16271L24.5644 5.21995C24.9577 5.62981 25.481 5.85575 26.0363 5.85575H27.4597C29.7581 5.85575 31.6287 7.81237 31.6287 10.218V11.7053C31.6301 12.2861 31.8461 12.835 32.238 13.2477L33.2321 14.2876C34.02 15.1073 34.4561 16.1993 34.4603 17.3652C34.463 18.5238 34.0366 19.6144 33.2598 20.4384C33.246 20.4529 33.2335 20.4688 33.2197 20.4819L32.2366 21.5102C31.8461 21.92 31.6301 22.4689 31.6287 23.0511V24.5385C31.6287 26.9426 29.7581 28.8993 27.4597 28.8993H26.0363C25.481 28.9007 24.9563 29.1266 24.563 29.5365L23.5675 30.5764C22.7561 31.4309 21.6844 31.8595 20.6141 31.8595" fill="#656060"/>
<path d="M27.5812 13.4037C27.1091 12.9113 26.3406 12.9113 25.8685 13.4037L18.7515 20.8479C18.2794 21.3417 18.6733 21.4388 19.1454 21.9341C19.3753 22.1731 19.2846 23.0116 19.6086 23.0116C19.9326 23.0116 20.2359 22.8798 20.4643 22.6408L27.5812 15.1967C28.0534 14.7014 28.0534 13.899 27.5812 13.4037Z" fill="#E2F3EB"/>
<path d="M14.6172 16.5556C14.3102 16.8887 14.309 17.7102 14.6172 18.0421L19.0578 23.3545C19.577 23.8977 20.0902 23.0958 20.399 22.7626C20.548 22.6005 21.1351 21.9534 21.1347 21.7252C21.1343 21.4971 20.5464 21.717 20.3968 21.5564L15.7373 16.5533C15.4272 16.2214 14.926 16.2224 14.6172 16.5556Z" fill="#E2F3EB"/>
</g>
<defs>
<filter id="filter0_d_1_312" x="0" y="0" width="41.2308" height="42.7585" filterUnits="userSpaceOnUse" color-interpolation-filters="sRGB">
<feFlood flood-opacity="0" result="BackgroundImageFix"/>
<feColorMatrix in="SourceAlpha" type="matrix" values="0 0 0 0 0 0 0 0 0 0 0 0 0 0 0 0 0 0 127 0" result="hardAlpha"/>
<feOffset dy="4"/>
<feGaussianBlur stdDeviation="2"/>
<feComposite in2="hardAlpha" operator="out"/>
<feColorMatrix type="matrix" values="0 0 0 0 0 0 0 0 0 0 0 0 0 0 0 0 0 0 0.25 0"/>
<feBlend mode="normal" in2="BackgroundImageFix" result="effect1_dropShadow_1_312"/>
<feBlend mode="normal" in="SourceGraphic" in2="effect1_dropShadow_1_312" result="shape"/>
</filter>
</defs>
</svg>
