<svg width="20" height="20" viewBox="0 0 20 20" fill="none" xmlns="http://www.w3.org/2000/svg">
<path fill-rule="evenodd" clip-rule="evenodd" d="M5.6702 -0.00012207H14.3402C17.7302 -0.00012207 20.0002 2.37988 20.0002 5.91988V14.0899C20.0002 17.6199 17.7302 19.9999 14.3402 19.9999H5.6702C2.2802 19.9999 0.000198364 17.6199 0.000198364 14.0899V5.91988C0.000198364 2.37988 2.2802 -0.00012207 5.6702 -0.00012207ZM5.5202 11.1999C4.8602 11.1999 4.3202 10.6599 4.3202 9.99988C4.3202 9.33988 4.8602 8.80088 5.5202 8.80088C6.1802 8.80088 6.7202 9.33988 6.7202 9.99988C6.7202 10.6599 6.1802 11.1999 5.5202 11.1999ZM8.8002 9.99988C8.8002 10.6599 9.3402 11.1999 10.0002 11.1999C10.6602 11.1999 11.2002 10.6599 11.2002 9.99988C11.2002 9.33988 10.6602 8.80088 10.0002 8.80088C9.3402 8.80088 8.8002 9.33988 8.8002 9.99988ZM13.2802 9.99988C13.2802 10.6599 13.8202 11.1999 14.4802 11.1999C15.1402 11.1999 15.6702 10.6599 15.6702 9.99988C15.6702 9.33988 15.1402 8.80088 14.4802 8.80088C13.8202 8.80088 13.2802 9.33988 13.2802 9.99988Z" fill="white"/>
</svg>
