<svg width="38" height="38" viewBox="0 0 38 38" fill="none" xmlns="http://www.w3.org/2000/svg">
<path fill-rule="evenodd" clip-rule="evenodd" d="M34.9585 13.5794L36.3269 14.9477C37.4103 16.0119 37.9996 17.4563 37.9996 18.9766C38.0186 20.497 37.4293 21.9432 36.365 23.0245C36.3523 23.0385 36.3396 23.0507 36.327 23.063C36.3206 23.0691 36.3143 23.0752 36.3079 23.0816L34.9585 24.4309C34.4263 24.963 34.1222 25.6852 34.1222 26.4472V28.4028C34.1222 31.5575 31.5562 34.125 28.4011 34.125H26.4434C25.6831 34.125 24.9608 34.4272 24.4286 34.9593L23.0601 36.3276C21.9387 37.4508 20.4752 38 19.0117 38C17.5481 38 16.0846 37.4508 14.9632 36.3485L13.5757 34.9593C13.0435 34.4272 12.3212 34.125 11.561 34.125H9.60326C6.44812 34.125 3.88219 31.5575 3.88219 28.4028V26.4472C3.88219 25.6852 3.57808 24.963 3.04588 24.4119L1.67739 23.0625C-0.546418 20.8409 -0.565424 17.2092 1.65838 14.9686L3.04588 13.5794C3.57808 13.0472 3.88219 12.3251 3.88219 11.5459V9.60744C3.88219 6.45271 6.44812 3.88902 9.60326 3.88902H11.561C12.3212 3.88902 13.0435 3.58305 13.5757 3.05092L14.9442 1.68261C17.168 -0.55801 20.7983 -0.55801 23.0411 1.6655L24.4286 3.05092C24.9608 3.58305 25.6831 3.88902 26.4434 3.88902H28.4011C31.5562 3.88902 34.1222 6.45271 34.1222 9.60744V11.5668C34.1222 12.3251 34.4263 13.0472 34.9585 13.5794ZM14.1079 25.5522C14.5641 25.5522 14.9822 25.3811 15.2863 25.0581L25.0559 15.2917C25.7021 14.6456 25.7021 13.5794 25.0559 12.9333C24.4096 12.289 23.3643 12.289 22.718 12.9333L12.9485 22.7015C12.3022 23.3477 12.3022 24.4119 12.9485 25.0581C13.2526 25.3811 13.6707 25.5522 14.1079 25.5522ZM22.2238 23.8797C22.2238 24.8109 22.9651 25.5521 23.8964 25.5521C24.8088 25.5521 25.55 24.8109 25.55 23.8797C25.55 22.9694 24.8088 22.2263 23.8964 22.2263C22.9651 22.2263 22.2238 22.9694 22.2238 23.8797ZM14.1269 12.458C15.0392 12.458 15.7805 13.1992 15.7805 14.1114C15.7805 15.0445 15.0392 15.7838 14.1269 15.7838C13.2146 15.7838 12.4543 15.0445 12.4543 14.1114C12.4543 13.1992 13.2146 12.458 14.1269 12.458Z" fill="#00F6FF"/>
</svg>
